<?xml version="1.0" encoding="UTF-8" standalone="no"?>
<!-- Created with Inkscape (http://www.inkscape.org/) -->

<svg
   xmlns:dc="http://purl.org/dc/elements/1.1/"
   xmlns:cc="http://creativecommons.org/ns#"
   xmlns:rdf="http://www.w3.org/1999/02/22-rdf-syntax-ns#"
   xmlns:svg="http://www.w3.org/2000/svg"
   xmlns="http://www.w3.org/2000/svg"
   xmlns:sodipodi="http://sodipodi.sourceforge.net/DTD/sodipodi-0.dtd"
   xmlns:inkscape="http://www.inkscape.org/namespaces/inkscape"
   width="104.16515mm"
   height="104.16515mm"
   viewBox="0 0 104.16515 104.16515"
   version="1.1"
   id="svg8"
   sodipodi:docname="icon.svg"
   inkscape:version="0.92.4 (5da689c313, 2019-01-14)">
  <defs
     id="defs2" />
  <sodipodi:namedview
     id="base"
     pagecolor="#ffffff"
     bordercolor="#666666"
     borderopacity="1.0"
     inkscape:pageopacity="0.0"
     inkscape:pageshadow="2"
     inkscape:zoom="0.35"
     inkscape:cx="-23.627197"
     inkscape:cy="-61.372486"
     inkscape:document-units="mm"
     inkscape:current-layer="layer1"
     showgrid="false"
     inkscape:window-width="1366"
     inkscape:window-height="708"
     inkscape:window-x="0"
     inkscape:window-y="0"
     inkscape:window-maximized="1"
     fit-margin-top="0"
     fit-margin-left="0"
     fit-margin-right="0"
     fit-margin-bottom="0" />
  <metadata
     id="metadata5">
    <rdf:RDF>
      <cc:Work
         rdf:about="">
        <dc:format>image/svg+xml</dc:format>
        <dc:type
           rdf:resource="http://purl.org/dc/dcmitype/StillImage" />
        <dc:title></dc:title>
      </cc:Work>
    </rdf:RDF>
  </metadata>
  <g
     inkscape:label="Layer 1"
     inkscape:groupmode="layer"
     id="layer1"
     transform="translate(-29.938257,-73.316223)">
    <rect
       y="73.316223"
       x="29.938257"
       height="104.16515"
       width="104.16515"
       id="rect4557"
       style="fill:#0d47a1;fill-opacity:1;stroke:none;stroke-width:3.06535649;stroke-miterlimit:4;stroke-dasharray:none;stroke-opacity:1"
       ry="6.6149206" />
    <circle
       style="fill:#ffd600;fill-opacity:1;stroke:none;stroke-width:0.1;stroke-miterlimit:4;stroke-dasharray:none;stroke-opacity:1"
       id="path826"
       cx="82.020836"
       cy="125.3988"
       r="47.436012" />
    <path
       style="fill:#d50000;fill-opacity:1;stroke:none;stroke-width:0.10231363;stroke-miterlimit:4;stroke-dasharray:none;stroke-opacity:1"
       d="m 44.412306,87.790088 h 17.670795 l 13.985,27.829002 h 11.905 L 101.9581,87.790257 h 17.67147 v 17.670833 l -27.829469,13.985 v 11.905 l 27.829469,13.985 v 17.67143 H 101.9581 L 87.973101,135.17809 h -11.905 l -13.985,27.82943 H 44.412306 v -17.67143 l 27.828795,-13.985 v -11.90532 l -27.829,-13.98468 z"
       id="rect828"
       inkscape:connector-curvature="0"
       sodipodi:nodetypes="ccccccccccccccccccccc" />
    <rect
       style="fill:#fafafa;fill-opacity:1;stroke:#d50000;stroke-width:0.66218227;stroke-miterlimit:4;stroke-dasharray:none;stroke-opacity:1"
       id="rect4553"
       width="22.50189"
       height="22.50189"
       x="70.76989"
       y="114.14786" />
    <g
       aria-label="5"
       style="font-style:normal;font-weight:normal;font-size:10.58333302px;line-height:1.25;font-family:sans-serif;letter-spacing:0px;word-spacing:0px;fill:#000000;fill-opacity:1;stroke:none;stroke-width:0.26458332"
       id="text4561">
      <path
         d="m 76.233071,84.036013 h 10.927843 v 2.342665 h -8.378472 v 5.04362 q 0.606337,-0.206706 1.212673,-0.303169 0.606337,-0.110243 1.212674,-0.110243 3.445095,0 5.457031,1.887912 2.011936,1.887913 2.011936,5.112522 0,3.32107 -2.067058,5.16764 -2.067057,1.83279 -5.829101,1.83279 -1.295356,0 -2.645833,-0.22048 -1.336697,-0.22049 -2.769857,-0.66146 v -2.79742 q 1.240234,0.67524 2.563151,1.00597 1.322917,0.33073 2.797418,0.33073 2.384006,0 3.775824,-1.25402 1.391819,-1.25401 1.391819,-3.40375 0,-2.14974 -1.391819,-3.403754 -1.391818,-1.254015 -3.775824,-1.254015 -1.116211,0 -2.232422,0.248047 -1.102431,0.248047 -2.259983,0.771701 z"
         style="font-size:28.22222137px;stroke-width:0.26458332"
         id="path5270" />
    </g>
    <g
       aria-label="6"
       transform="rotate(90)"
       style="font-style:normal;font-weight:normal;font-size:10.58333302px;line-height:1.25;font-family:sans-serif;letter-spacing:0px;word-spacing:0px;fill:#000000;fill-opacity:1;stroke:none;stroke-width:0.26458332"
       id="text4565">
      <path
         d="m 125.63996,-112.19594 q -1.87414,0 -2.97657,1.28158 -1.08865,1.28157 -1.08865,3.514 0,2.21864 1.08865,3.51399 1.10243,1.28158 2.97657,1.28158 1.87413,0 2.96278,-1.28158 1.10243,-1.29535 1.10243,-3.51399 0,-2.23243 -1.10243,-3.514 -1.08865,-1.28158 -2.96278,-1.28158 z m 5.52593,-8.72298 v 2.53559 q -1.04731,-0.49609 -2.12218,-0.75792 -1.06109,-0.26183 -2.1084,-0.26183 -2.75608,0 -4.2168,1.86036 -1.44694,1.86035 -1.65364,5.62239 0.81304,-1.19889 2.03949,-1.83279 1.22646,-0.64768 2.70096,-0.64768 3.10059,0 4.89204,1.88792 1.80523,1.87413 1.80523,5.11252 0,3.16948 -1.87414,5.08496 -1.87413,1.91547 -4.98849,1.91547 -3.56912,0 -5.45704,-2.72852 -1.88791,-2.74229 -1.88791,-7.93749 0,-4.87826 2.31511,-7.77214 2.3151,-2.90766 6.21495,-2.90766 1.04731,0 2.1084,0.20671 1.07487,0.2067 2.23242,0.62011 z"
         style="font-size:28.22222137px;stroke-width:0.26458332"
         id="path5267" />
    </g>
    <g
       aria-label="7"
       transform="scale(-1)"
       style="font-style:normal;font-weight:normal;font-size:10.58333302px;line-height:1.25;font-family:sans-serif;letter-spacing:0px;word-spacing:0px;fill:#000000;fill-opacity:1;stroke:none;stroke-width:0.26458332"
       id="text4569">
      <path
         d="m -88.635419,-163.21809 h 13.229166 v 1.18511 l -7.468967,19.389 h -2.90766 l 7.027994,-18.23145 h -9.880533 z"
         style="font-size:28.22222137px;stroke-width:0.26458332"
         id="path5276" />
    </g>
    <g
       aria-label="8"
       transform="rotate(-90)"
       style="font-style:normal;font-weight:normal;font-size:10.58333302px;line-height:1.25;font-family:sans-serif;letter-spacing:0px;word-spacing:0px;fill:#000000;fill-opacity:1;stroke:none;stroke-width:0.26458332"
       id="text4573">
      <path
         d="m -125.3988,52.617435 q -1.98437,0 -3.12815,1.06109 -1.12999,1.061089 -1.12999,2.921441 0,1.860351 1.12999,2.92144 1.14378,1.06109 3.12815,1.06109 1.98438,0 3.12815,-1.06109 1.14377,-1.074869 1.14377,-2.92144 0,-1.860352 -1.14377,-2.921441 -1.12999,-1.06109 -3.12815,-1.06109 z m -2.78364,-1.185112 q -1.79145,-0.440973 -2.79741,-1.667427 -0.99219,-1.226454 -0.99219,-2.990342 0,-2.466689 1.75011,-3.899848 1.76389,-1.43316 4.82313,-1.43316 3.07303,0 4.82313,1.43316 1.75011,1.433159 1.75011,3.899848 0,1.763888 -1.00596,2.990342 -0.99219,1.226454 -2.76986,1.667427 2.01193,0.468532 3.12815,1.83279 1.12999,1.364258 1.12999,3.334853 0,2.990342 -1.83279,4.588867 -1.81901,1.598524 -5.22277,1.598524 -3.40375,0 -5.23654,-1.598524 -1.81901,-1.598525 -1.81901,-4.588867 0,-1.970595 1.12999,-3.334853 1.12999,-1.364258 3.14192,-1.83279 z m -1.01974,-4.395942 q 0,1.598524 0.99218,2.494249 1.00597,0.895725 2.8112,0.895725 1.79145,0 2.79742,-0.895725 1.01975,-0.895725 1.01975,-2.494249 0,-1.598524 -1.01975,-2.494249 -1.00597,-0.895725 -2.79742,-0.895725 -1.80523,0 -2.8112,0.895725 -0.99218,0.895725 -0.99218,2.494249 z"
         style="font-size:28.22222137px;stroke-width:0.26458332"
         id="path5273" />
    </g>
    <ellipse
       style="fill:#d50000;fill-opacity:1;stroke:none;stroke-width:0.69996315;stroke-miterlimit:4;stroke-dasharray:none;stroke-opacity:1"
       id="path4575"
       cx="36.198959"
       cy="79.576447"
       rx="1.9377041"
       ry="1.9375" />
    <circle
       r="1.9377041"
       cy="84.584427"
       cx="36.198959"
       id="circle4577"
       style="fill:#d50000;fill-opacity:1;stroke:none;stroke-width:0.69999999;stroke-miterlimit:4;stroke-dasharray:none;stroke-opacity:1" />
    <ellipse
       ry="1.9375"
       rx="1.9377041"
       cy="-127.8432"
       cx="79.576927"
       id="ellipse4599"
       style="fill:#d50000;fill-opacity:1;stroke:none;stroke-width:0.69996315;stroke-miterlimit:4;stroke-dasharray:none;stroke-opacity:1"
       transform="rotate(90)" />
    <circle
       style="fill:#d50000;fill-opacity:1;stroke:none;stroke-width:0.69999999;stroke-miterlimit:4;stroke-dasharray:none;stroke-opacity:1"
       id="circle4601"
       cx="79.576927"
       cy="-122.83521"
       r="1.9377041"
       transform="rotate(90)" />
    <ellipse
       transform="scale(-1)"
       style="fill:#d50000;fill-opacity:1;stroke:none;stroke-width:0.69996315;stroke-miterlimit:4;stroke-dasharray:none;stroke-opacity:1"
       id="ellipse4605"
       cx="-127.84271"
       cy="-171.22116"
       rx="1.9377041"
       ry="1.9375" />
    <circle
       transform="scale(-1)"
       r="1.9377041"
       cy="-166.21317"
       cx="-127.84271"
       id="circle4607"
       style="fill:#d50000;fill-opacity:1;stroke:none;stroke-width:0.69999999;stroke-miterlimit:4;stroke-dasharray:none;stroke-opacity:1" />
    <ellipse
       ry="1.9375"
       rx="1.9377041"
       cy="36.198486"
       cx="-171.22069"
       id="ellipse4611"
       style="fill:#d50000;fill-opacity:1;stroke:none;stroke-width:0.69996315;stroke-miterlimit:4;stroke-dasharray:none;stroke-opacity:1"
       transform="rotate(-90)" />
    <circle
       style="fill:#d50000;fill-opacity:1;stroke:none;stroke-width:0.69999999;stroke-miterlimit:4;stroke-dasharray:none;stroke-opacity:1"
       id="circle4613"
       cx="-171.22069"
       cy="41.206482"
       r="1.9377041"
       transform="rotate(-90)" />
    <g
       id="g864"
       transform="matrix(0.99996318,0,0,1,92.551015,-17.629174)"
       style="fill:#000000;fill-opacity:1">
      <rect
         ry="0"
         y="134.23401"
         x="-16.583704"
         height="7.5122766"
         width="1.6536458"
         id="rect837"
         style="fill:#000000;fill-opacity:1;stroke:none;stroke-width:0.1;stroke-miterlimit:4;stroke-dasharray:none;stroke-opacity:1" />
      <rect
         transform="rotate(90)"
         style="fill:#000000;fill-opacity:1;stroke:none;stroke-width:0.1;stroke-miterlimit:4;stroke-dasharray:none;stroke-opacity:1"
         id="rect839"
         width="1.6536458"
         height="7.5122766"
         x="137.16333"
         y="12.000743"
         ry="0" />
    </g>
    <rect
       transform="rotate(90)"
       style="fill:#000000;fill-opacity:1;stroke:none;stroke-width:0.10001072;stroke-miterlimit:4;stroke-dasharray:none;stroke-opacity:1"
       id="rect841"
       width="1.654"
       height="7.5122766"
       x="119.53397"
       y="-91.002953"
       ry="0" />
    <g
       id="g860"
       transform="matrix(0.99995477,0,0,1,56.305953,-7.5535145)"
       style="fill:#000000;fill-opacity:1">
      <rect
         transform="rotate(45)"
         style="fill:#000000;fill-opacity:1;stroke:none;stroke-width:0.1;stroke-miterlimit:4;stroke-dasharray:none;stroke-opacity:1"
         id="rect843"
         width="1.6536458"
         height="7.5122766"
         x="111.23534"
         y="79.329231"
         ry="0" />
      <rect
         ry="0"
         y="-115.81831"
         x="82.258553"
         height="7.5122766"
         width="1.6536458"
         id="rect845"
         style="fill:#000000;fill-opacity:1;stroke:none;stroke-width:0.1;stroke-miterlimit:4;stroke-dasharray:none;stroke-opacity:1"
         transform="rotate(135)" />
    </g>
    <g
       id="g856"
       transform="translate(48.868216,-7.5762773)"
       style="fill:#000000;fill-opacity:1">
      <rect
         transform="rotate(90)"
         style="fill:#000000;fill-opacity:1;stroke:none;stroke-width:0.1;stroke-miterlimit:4;stroke-dasharray:none;stroke-opacity:1"
         id="rect847"
         width="1.6536458"
         height="7.5122766"
         x="137.16333"
         y="-42.134739"
         ry="0" />
      <rect
         ry="0"
         y="-39.261593"
         x="134.25677"
         height="1.7659818"
         width="1.6536458"
         id="rect849"
         style="fill:#000000;fill-opacity:1;stroke:none;stroke-width:0.04848499;stroke-miterlimit:4;stroke-dasharray:none;stroke-opacity:1"
         transform="rotate(90)" />
      <rect
         transform="rotate(90)"
         style="fill:#000000;fill-opacity:1;stroke:none;stroke-width:0.04848499;stroke-miterlimit:4;stroke-dasharray:none;stroke-opacity:1"
         id="rect851"
         width="1.6536458"
         height="1.7659818"
         x="140.1154"
         y="-39.261593"
         ry="0" />
    </g>
  </g>
</svg>
